<?xml version="1.0" encoding="UTF-8"?>
<svg id="Layer_1" data-name="Layer 1" xmlns="http://www.w3.org/2000/svg" viewBox="0 0 3000.81 890.1">
  <defs>
    <style>
      .cls-1 {
        fill: #fff;
      }
    </style>
  </defs>
  <g>
    <path class="cls-1" d="M1056.72,557.05l-110.58-248.88c-3.15-7.07-8.29-12.9-14.59-16.89-6.22-4.07-13.59-6.37-21.42-6.37-15.59,0-29.64,9.14-36.09,23.34l-110.12,248.8c-2.38,5.37,1.46,11.44,7.3,11.44h35.78c3.23,0,6.14-1.92,7.37-4.92l23.34-54.9c1.31-2.99,4.22-4.91,7.45-4.91h129.16c3.23,0,6.07,1.92,7.37,4.84l23.8,55.06c1.23,2.92,4.15,4.84,7.3,4.84h36.55c5.84,0,9.75-6.07,7.37-11.44ZM956.28,463.06h-92.69c-2.92,0-4.91-3-3.76-5.68l47.99-112.11c.69-1.69,3.07-1.69,3.76,0l48.38,112.11c1.15,2.69-.77,5.68-3.69,5.68Z"/>
    <path class="cls-1" d="M1264.29,476.58c37.93-14.74,59.51-45.84,59.51-88.23,0-61.89-45.54-99.37-119.02-99.37h-106.89c-4.45,0-8.06,3.61-8.06,7.99v263.47c0,4.38,3.61,8.06,8.06,8.06h35.78c4.45,0,8.06-3.61,8.06-8.06v-69.34c0-2.23,1.84-4.15,4.07-4.15h58.97c2.23,0,4.38,0,6.6-.08,2.69-.08,5.3,1.23,6.83,3.46l52.06,74.64c1.54,2.23,3.99,3.53,6.68,3.53h36.17c6.53,0,10.37-7.37,6.6-12.75l-55.44-79.17ZM1202.4,444.25h-56.59c-2.3,0-4.07-1.77-4.07-4.07v-103.28c0-2.23,1.84-4.07,4.07-4.07h56.59c45.54,0,69.11,20.43,69.11,55.52s-23.57,55.9-69.11,55.9Z"/>
    <path class="cls-1" d="M1531.53,333.27c16.46,3.36,30.11,13.51,42.61,24.73,3.08,2.77,7.81,2.72,10.83-.15l22.05-20.74c3.23-3.03,3.52-8.2.43-11.37-25.88-26.56-62.76-40.81-105.25-40.81-85.84,0-149.75,60.3-149.75,143.76s63.91,143.76,149.34,143.76c42.8,0,79.65-14.18,105.47-40.66,3.16-3.24,3.07-8.4-.16-11.52l-22.1-20.99c-3.07-2.99-7.99-2.99-11.07,0-19.39,18.65-42.67,27.63-69.32,27.63-57.92,0-99.86-40.71-99.86-98.22,0-66.1,55.38-109.99,126.77-95.42Z"/>
    <path class="cls-1" d="M1848.81,423.13c21.58-11.6,35.94-32.79,35.94-61.51,0-44.38-35.94-72.64-103.05-72.64h-122.86c-4.45,0-8.06,3.61-8.06,7.99v263.47c0,4.38,3.61,8.06,8.06,8.06h130.93c71.8,0,109.35-27.95,109.35-75.87,0-36.4-20.35-59.9-50.3-69.49ZM1702.68,333.75c0-2.23,1.84-4.07,4.07-4.07h69.42c35.86,0,56.29,12.75,56.29,38.7s-20.43,38.32-56.29,38.32h-69.42c-2.3,0-4.07-1.84-4.07-4.07v-68.88ZM1786.54,527.72h-79.79c-2.3,0-4.07-1.84-4.07-4.07v-72.57c0-2.23,1.77-3.99,4.07-3.99h79.79c39.09,0,60.28,12.36,60.28,40.31s-21.19,40.31-60.28,40.31Z"/>
    <path class="cls-1" d="M2148.66,524.94h-141.63c-4.46,0-8.08-3.62-8.08-8.08v-60.91c0-4.46,3.62-8.08,8.08-8.08h118.84c4.46,0,8.08-3.62,8.08-8.08v-26.61c0-4.46-3.62-8.07-8.07-8.07h-172.66c-3.4,0-6.15,2.75-6.15,6.15v149.13c0,4.44,3.63,8.08,8.08,8.08h193.49c4.46,0,8.08-3.62,8.08-8.08v-27.42c0-4.44-3.6-8.03-8.03-8.03Z"/>
    <path class="cls-1" d="M1949.11,378.72h38.67c6.17,0,11.18-5.01,11.18-11.18v-27.03c0-4.44,3.6-8.03,8.03-8.03h136.05c4.46,0,8.08-3.62,8.08-8.08v-27.42c0-4.44-3.6-8.03-8.03-8.03h-187.99c-4.42,0-8.03,3.62-8.03,8.03v79.69c0,1.13.92,2.05,2.05,2.05Z"/>
    <path class="cls-1" d="M2474.81,557.05l-110.5-248.95c-3.23-7.07-8.37-12.9-14.59-16.97-6.3-3.99-13.67-6.3-21.5-6.3-15.51,0-29.64,9.14-36.01,23.27l-110.19,248.95c-2.38,5.37,1.54,11.44,7.37,11.44h35.71c3.23,0,6.14-1.92,7.37-4.92l23.42-54.9c1.23-2.99,4.15-4.91,7.37-4.91h129.24c3.15,0,6.07,1.92,7.37,4.84l23.73,54.98c1.23,3,4.15,4.92,7.37,4.92h36.55c5.84,0,9.75-6.07,7.3-11.44ZM2374.37,463.06h-92.69c-2.92,0-4.84-3-3.76-5.68l46.23-107.81c1.38-3.3,6.07-3.3,7.45,0l46.53,107.81c1.15,2.69-.84,5.68-3.76,5.68Z"/>
    <path class="cls-1" d="M2813.4,296.98c0-4.43-3.61-8.03-8.03-8.03h-30.09c-2.83,0-5.49,1.52-6.93,3.98l-88.42,150.24-14.8,25.17c-1.56,2.66-5.41,2.66-6.97,0l-61.45-102.56-43.7-72.93c-1.48-2.42-4.1-3.89-6.93-3.89h-30.09c-4.44,0-8.08,3.63-8.08,8.07v263.38c0,4.46,3.62,8.08,8.08,8.08h33.41c4.44,0,8.03-3.6,8.03-8.03v-160.36c0-4.12,5.41-5.63,7.55-2.12l13.03,21.39,69.07,113.51c1.48,2.3,3.98,3.65,6.72,3.65h14.06c2.85,0,5.5-1.5,6.96-3.95l10.87-18.19,18.45-30.79,52.59-87.85c2.13-3.53,7.58-2.05,7.58,2.09l.33,162.58c.04,4.47,3.65,8.08,8.08,8.08h33c4.47,0,8.08-3.65,8.08-8.08l-.41-263.42Z"/>
  </g>
  <path class="cls-1" d="M667.24,575.66s-52.4,28.41-52.4,28.41c-6.16,2.66-12.97,2.31-18.87-.66-4.61-2.32-8.36-6.01-11.9-9.76-9.79-10.39-18.15-21.89-27.14-32.93-7.71-9.47-15.7-18.71-24.03-27.65-17.3-18.56-36.21-36.49-58.09-49.59-7.93-4.75-16.34-8.84-25.24-11.43-7.59-2.22-15.43-3.16-23.26-3.56-3.16-.16-6.33-.32-9.41-.32-2.93,0-5.93.16-8.86.32-13.77.79-27.37,4.19-40.11,9.49-51.66,21.44-87.74,63.53-114.08,94.3-1.42,1.66-2.85,3.32-4.43,5.14,3.4-37.74,18.67-103.4,49.45-171.75,46.91-104.03,86.55-156.8,117.96-156.8,15.74,0,33.54,13.21,53.24,39.4,19.78,26.19,41.38,65.43,64.79,117.4,18.12,40.27,30.85,79.67,39,112.89,3.09,12.74,13.53,22.94,26.58,24.29,22.23,2.29,38.69-17.64,33.78-37.9-9.89-40.9-24.92-84.81-42.88-124.68-43.12-95.49-97.47-193.19-174.44-193.27-38.53,0-71.36,24.45-100,60.84-28.56,36.31-52.93,84.65-74.44,132.43-23.02,51.11-41.38,108.86-50.08,158.38-11.95,67.4-4.11,104.98,24.68,118.04,32.99,15.11,57.67-13.69,83.7-44.15,23.81-27.69,53.24-62.1,91.69-77.77,15.25-6.22,31.83-8.46,48.18-6.54,15.45,1.82,30.32,7.11,44.05,14.31,13.4,7.02,25.81,15.83,37.34,25.6,9.97,8.45,19.31,17.64,28.05,27.34,5.17,5.74,10.39,11.49,13.89,18.46,1.66,3.31,6.5,16.49-2.71,28.66l-39.24,42.37c-1.58,1.5.24,3.96,2.14,3.01,0,0,46.05-18.98,55.89-22.83,8.34-3.26,15.96-.81,23.18,4.83,0,0,42.92,32.48,43.13,32.65,1.42,1.19,3.4-.08,3.09-1.74-.09-.19-21.69-48.39-21.69-48.4-3.61-8.83-2.05-17.02,3.53-24.99l38.11-48.84c1.5-1.5-.24-3.96-2.14-3.01Z"/>
</svg>